<?xml version="1.0" encoding="UTF-8" standalone="no"?>
<!-- Created with Inkscape (http://www.inkscape.org/) -->

<svg
   width="202.05"
   height="202.05"
   viewBox="0 0 53.459062 53.459063"
   version="1.1"
   id="svg1"
   xml:space="preserve"
   sodipodi:docname="favicon.svg"
   inkscape:export-filename="favicon.svg"
   inkscape:export-xdpi="96"
   inkscape:export-ydpi="96"
   inkscape:version="1.3.2 (091e20e, 2023-11-25, custom)"
   xmlns:inkscape="http://www.inkscape.org/namespaces/inkscape"
   xmlns:sodipodi="http://sodipodi.sourceforge.net/DTD/sodipodi-0.dtd"
   xmlns="http://www.w3.org/2000/svg"
   xmlns:svg="http://www.w3.org/2000/svg"><sodipodi:namedview
     id="namedview1"
     pagecolor="#ffffff"
     bordercolor="#000000"
     borderopacity="0.25"
     inkscape:showpageshadow="2"
     inkscape:pageopacity="0.0"
     inkscape:pagecheckerboard="0"
     inkscape:deskcolor="#d1d1d1"
     inkscape:zoom="2.6107819"
     inkscape:cx="52.666215"
     inkscape:cy="105.52394"
     inkscape:window-width="1920"
     inkscape:window-height="991"
     inkscape:window-x="-9"
     inkscape:window-y="-9"
     inkscape:window-maximized="1"
     inkscape:current-layer="svg1" /><defs
     id="defs1" /><g
     id="g1"
     style="fill:#48b5b3"
     transform="matrix(0.6531207,0,0,0.6531207,-628.76126,-1247.7327)"><path
       id="path1"
       style="color:#48b5b3;fill:#48b5b3;stroke-linecap:round;stroke-linejoin:round;-inkscape-stroke:none;paint-order:fill markers stroke"
       d="m 986.99023,1925.6406 c -6.39808,-0.1472 -12.39638,3.1405 -15.72265,8.6153 -3.32633,5.4746 -3.48149,12.3164 -0.41016,17.9375 a 1.6105998,1.6124021 16.315757 0 0 2.18555,0.6406 l 14.30664,-7.8379 14.30659,-7.8399 a 1.6105998,1.6124021 16.315757 0 0 0.6407,-2.1874 c -3.07135,-5.6211 -8.90863,-9.1811 -15.30667,-9.3282 z m 42.26757,1.3731 c -9.6456,-0.071 -16.4419,6.7524 -17.8242,13.5195 l -6.2109,30.4102 a 1.6115012,1.6115012 0 0 0 2.0488,1.8652 l 31.8125,-9.6758 a 1.6115012,1.6115012 0 0 0 0.9531,-1.7148 c 0.052,0.029 0.2055,0.2512 0.2129,0.2148 0.057,-0.2795 0.172,-0.8371 0.4004,-1.9551 0.4567,-2.236 1.3703,-6.7082 3.1973,-15.6523 0.05,-0.2471 0.3702,-1.3848 0.5566,-2.7539 0.1864,-1.3691 0.2607,-3.0824 -0.1504,-4.8945 -0.8222,-3.6243 -3.8648,-7.4574 -10.6953,-8.8907 -1.4868,-0.3119 -2.9228,-0.4624 -4.3008,-0.4726 z m -33.71288,25.5488 a 1.6108843,1.6121179 27.402264 0 0 -0.625,0.07 l -15.54492,4.9375 -15.54688,4.9356 a 1.6108843,1.6121179 27.402264 0 0 -1.04882,2.0253 c 1.93449,6.1072 6.97991,10.7233 13.23047,12.0997 6.25055,1.3763 12.76835,-0.6937 17.08398,-5.4258 4.31565,-4.7322 5.78215,-11.4183 3.84766,-17.5254 a 1.6108843,1.6121179 27.402264 0 0 -1.39649,-1.1172 z" /></g></svg>
