<?xml version="1.0" encoding="UTF-8" standalone="no"?>
<!-- Created with Inkscape (http://www.inkscape.org/) -->

<svg
   width="376.87793"
   height="123.54296"
   viewBox="0 0 99.715617 32.687408"
   version="1.1"
   id="svg1"
   xml:space="preserve"
   xmlns:xlink="http://www.w3.org/1999/xlink"
   xmlns="http://www.w3.org/2000/svg"
   xmlns:svg="http://www.w3.org/2000/svg"><defs
     id="defs1" /><g
     id="layer1"
     transform="translate(228.71863,-358.33566)"><ellipse
       style="font-variation-settings:'YROT' -4;fill:none;fill-opacity:1;stroke:none;stroke-width:2.03208;stroke-linecap:round;paint-order:fill markers stroke"
       id="circle11"
       cx="50.642872"
       cy="-92.428406"
       transform="matrix(-0.96841418,0.24934711,0.27881835,0.96034386,0,0)"
       rx="45.950081"
       ry="32.441608" /><text
       xml:space="preserve"
       id="text12"
       style="font-style:normal;font-variant:normal;font-weight:normal;font-stretch:normal;font-size:14.3234px;line-height:1.2;font-family:'Tilt Warp';-inkscape-font-specification:'Tilt Warp, @YROT=-4.0';font-variant-ligatures:normal;font-variant-caps:normal;font-variant-numeric:normal;font-variant-east-asian:normal;font-variation-settings:'YROT' -4;text-decoration-color:#000000;letter-spacing:2.38125px;white-space:pre;display:inline;fill:#000000;fill-opacity:1;stroke:none;stroke-width:1.32292;stroke-linecap:round;paint-order:fill markers stroke"
       transform="translate(1.2187453e-6,-0.92604172)"><textPath
         xlink:href="#circle11"
         id="textPath16"
         style="stroke-width:1.32292">syd nguyen</textPath></text><g
       id="layer1-0"
       transform="matrix(0.09514792,0,0,0.09514792,-395.17521,-238.92613)"><path
         id="path627"
         style="fill:#000000"
         d="m 2502.5703,6277.2285 c -2.2166,-0.1925 -4.4622,0.3758 -6.4004,1.9004 -5.6472,4.442 -3.3124,14.3302 3.8457,15.9531 6.6925,1.5173 12.5082,-4.5237 10.7285,-11.1328 -1.0662,-3.9597 -4.4808,-6.4001 -8.1738,-6.7207 z m -39.1582,8.3145 c -2.0045,-0.04 -4.0292,0.6288 -6.0508,2.6504 -4.7245,4.7245 -3.8757,11.571 1.4922,14.4082 1.8597,0.9829 4.4164,1.2441 6.7344,0.7461 2.318,-0.4981 4.2713,-1.7343 5.1992,-3.1504 2.3797,-3.6331 2.032,-7.018 0.3809,-9.8301 -1.6514,-2.8126 -4.7495,-4.764 -7.7559,-4.8242 z m -246.4336,13.7226 c -3.6045,-0.2709 -7.8967,0.306 -12.7949,1.9551 -11.8274,3.9818 -27.6742,13.6977 -41.5293,24.7305 -13.8551,11.0328 -25.8235,23.5805 -30.1992,32.2695 -4.0196,7.9818 -1.7234,13.061 1.8515,15.0918 3.5749,2.0308 9.3799,1.4315 14.4922,-5.9395 6.4049,-9.2347 17.5728,-18.6802 36.9805,-31.7168 4.4329,-2.9776 9.4257,-6.0584 13.4258,-8.3554 2,-1.1485 3.7425,-2.0967 5.0976,-2.7598 0.6776,-0.3315 1.244,-0.5919 1.8028,-0.793 0.2794,-0.1005 0.5403,-0.1926 0.9648,-0.2617 0.2123,-0.034 0.464,-0.072 0.8848,-0.031 0.4207,0.041 1.1408,0.1584 1.8457,0.8633 1.1057,1.1057 1.0661,2.1457 1.0586,2.8945 -0.01,0.7488 -0.1285,1.4235 -0.3047,2.1816 -0.3525,1.5163 -0.9655,3.3312 -1.8242,5.545 -1.7176,4.4275 -4.423,10.3901 -7.9278,17.5449 -7.0095,14.3096 -17.2104,33.3436 -28.9121,53.6562 -6.8103,11.8217 -15.0596,26.6273 -18.2343,32.7129 -3.277,6.2815 -7.7056,14.0781 -10.0879,17.7051 -2.1157,3.2209 -6.3842,10.5359 -9.2891,15.9492 l -5.3594,9.9883 a 2.8922255,2.8922255 0 0 1 -4.5234,0.7461 l -1.7402,-1.625 c -11.9627,-11.1758 -19.0188,-36.4087 -19.7422,-65.1192 l -0.377,-14.9101 a 2.8922255,2.8922255 0 0 1 0.088,-0.7852 l 2.5918,-10.1816 c 7.1672,-28.172 10.0135,-48.067 8.7852,-59.4629 -0.6142,-5.698 -2.2175,-9.0208 -4.1309,-10.5625 -1.9134,-1.5417 -4.5882,-1.9624 -9.041,-0.668 -4.6249,1.3445 -8.5138,5.7379 -11.7735,15.5215 -3.2597,9.7836 -5.6102,24.5701 -7.1953,45.0899 l -0.4961,6.4355 a 2.8922255,2.8922255 0 0 1 -3.4492,2.6133 l -1.9082,-0.3809 c -11.4753,-2.2885 -21.622,0.4943 -29.3652,7.0254 -7.7432,6.5311 -13.0911,16.9303 -14.2988,30.1387 -1.1491,12.5668 4.6203,22.2242 12.9843,27.0859 8.3641,4.8618 19.2813,4.9653 29.1367,-2.4843 l 5.1817,-3.9161 a 2.8922255,2.8922255 0 0 1 4.5664,1.6758 l 0.9101,4.0762 c 1.406,6.2993 5.6701,17.8659 8.9981,24.3242 0.9238,1.7927 1.7319,3.4446 2.3086,4.709 0.2883,0.6322 0.5166,1.1579 0.6914,1.6152 0.087,0.2287 0.1618,0.4255 0.2383,0.7168 0.038,0.1457 0.084,0.3008 0.1094,0.6426 0.013,0.1709 0.03,0.3897 -0.041,0.7734 -0.071,0.3833 -0.2342,1.0565 -0.9668,1.6875 -9e-4,9e-4 -9e-4,-8e-4 0,0 -7e-4,6e-4 6e-4,0 0,0 -0.7075,0.6077 -0.9242,0.5418 -1.1016,0.5937 -0.1777,0.052 -0.2773,0.07 -0.3652,0.086 -0.1759,0.031 -0.2916,0.044 -0.418,0.057 -0.2528,0.026 -0.5233,0.042 -0.8594,0.061 -0.6722,0.037 -1.5845,0.073 -2.7304,0.1074 -2.2918,0.069 -5.5016,0.1357 -9.336,0.1992 -7.6686,0.127 -17.8241,0.2387 -27.9707,0.3164 -10.1465,0.078 -20.2813,0.1211 -27.9121,0.1113 -3.8154,0 -7.0017,-0.022 -9.2656,-0.057 -1.132,-0.017 -2.0293,-0.037 -2.6875,-0.064 -0.3291,-0.014 -0.5924,-0.028 -0.8457,-0.051 -0.1267,-0.012 -0.2403,-0.021 -0.4395,-0.057 -0.1,-0.018 -0.2137,-0.035 -0.4492,-0.1133 -0.1177,-0.039 -0.266,-0.088 -0.5078,-0.2226 -0.2418,-0.1343 -1.0631,-1.0135 -1.0644,-1.0156 -0.5344,-0.8658 -0.403,-1.0451 -0.4258,-1.2364 -0.023,-0.1915 -0.024,-0.3053 -0.025,-0.414 0,-0.2175 0,-0.3951 0.016,-0.6016 0.023,-0.4129 0.064,-0.9152 0.125,-1.539 0.1211,-1.2477 0.3148,-2.9624 0.5703,-5.0508 0.5111,-4.177 1.2647,-9.8302 2.1387,-15.9766 4.357,-30.6426 6.1034,-49.5571 4.9941,-60.418 -0.5546,-5.4304 -1.8064,-8.7049 -3.3945,-10.5996 -1.5881,-1.8946 -3.6222,-2.8001 -6.9726,-3.1777 -4.3386,-0.4891 -6.1177,-0.086 -8.0977,2.1797 -1.98,2.2657 -4.0157,7.2197 -6.2754,15.707 -0.7202,2.705 -1.5386,5.4995 -2.2871,7.8555 -0.7485,2.356 -1.3529,4.1455 -1.9434,5.3769 l -1.4707,3.0664 a 2.8922255,2.8922255 0 0 1 -5.4922,-1.4648 l 0.4063,-5.4531 c 0.5749,-7.7026 2.1458,-14.4032 4.7559,-19.4785 3.015,-5.8629 1.3389,-10.7443 -1.7813,-13.3653 -3.1202,-2.6209 -7.5754,-3.2258 -12.2051,1.1934 -2.3818,2.2735 -5.2611,7.5818 -7.4551,14.3769 -2.1939,6.7951 -3.8392,15.0856 -4.5,23.5293 -0.7071,9.0372 1.5097,16.7604 5.5391,22.125 4.0295,5.3647 9.7729,8.4613 16.8555,8.4297 2.4654,-0.011 3.8232,-0.048 5.2187,0.2539 0.6978,0.151 1.7157,0.4182 2.4883,1.5586 0.7726,1.1405 0.5878,2.411 0.4258,3 0.1086,-0.3948 -0.082,0.4343 -0.2207,1.2735 -0.1387,0.8391 -0.3231,1.996 -0.5352,3.375 -0.4241,2.7579 -0.9649,6.4126 -1.5215,10.2851 l -2.0273,14.1113 a 2.8922255,2.8922255 0 0 1 -2.918,2.4786 l -22.9394,-0.4414 c -12.6445,-0.2434 -34.3138,-0.8406 -48.209,-1.3321 -15.4805,-0.5476 -23.7926,-0.607 -28.0898,0.3457 -2.1487,0.4764 -3.2076,1.0718 -4.1485,1.9785 -0.9409,0.9068 -1.8176,2.3234 -2.9316,4.4961 -2.2939,4.4741 -2.4164,7.0087 -0.5469,9.9785 1.8695,2.9699 6.5516,6.4998 14.6367,10.5352 23.2998,11.6292 48.0639,27.3861 70.8418,45.0606 7.8244,6.0712 13.1308,9.6148 17.0957,11.2695 3.965,1.6547 6.4465,1.6524 9.9942,0.6211 4.8977,-1.4238 7.0826,-2.8682 9.0312,-7.3125 1.9486,-4.4444 3.1871,-12.2281 4.2168,-25.0899 0.5922,-7.396 1.1443,-13.4891 1.6074,-17.8144 0.2316,-2.1627 0.4398,-3.8787 0.627,-5.1328 0.094,-0.6271 0.1787,-1.1321 0.2773,-1.5782 0.049,-0.223 0.098,-0.4256 0.1856,-0.6855 0.087,-0.2599 -0.1089,-0.5177 0.9121,-1.4219 5e-4,-4e-4 0.595,-0.4129 0.7578,-0.4844 0.1628,-0.071 0.2666,-0.1044 0.3496,-0.1289 0.1661,-0.049 0.2485,-0.062 0.3164,-0.074 0.1358,-0.024 0.1971,-0.031 0.2559,-0.037 0.1176,-0.012 0.1985,-0.016 0.2929,-0.022 0.1888,-0.011 0.4123,-0.023 0.6973,-0.033 0.57,-0.021 1.3731,-0.042 2.4004,-0.066 2.0546,-0.049 4.9954,-0.1068 8.6133,-0.168 7.2358,-0.1222 17.1759,-0.2623 28.0801,-0.3886 21.7913,-0.2524 45.8798,-0.6283 53.4101,-0.8321 35.8864,-0.9705 63.4432,-1.8315 72.1211,-2.25 2.7768,-0.1338 5.2271,-0.1826 7.0547,-0.1484 0.9138,0.017 1.6559,0.051 2.3047,0.125 0.3244,0.037 0.606,0.069 1.0312,0.1934 0.2126,0.062 0.4613,0.1218 0.8946,0.4004 0.4332,0.2785 1.3769,1.094 1.3769,2.498 a 2.8922255,2.8922255 0 0 1 0,0.02 c 0,0.6297 -0.064,0.619 -0.094,0.75 -0.03,0.1311 -0.06,0.2415 -0.094,0.3653 -0.068,0.2475 -0.1538,0.5349 -0.2617,0.8847 -0.2158,0.6996 -0.5181,1.6364 -0.8887,2.7598 -0.7411,2.2468 -1.7557,5.2366 -2.873,8.4492 -4.3929,12.6309 -6.4939,20.7758 -6.5332,26.2266 -0.039,5.4507 1.5184,8.272 5.4765,11.9629 2.5572,2.3844 4.4409,3.8357 6.7696,4.6035 2.3286,0.7678 5.3781,0.9419 10.4043,0.098 10.0523,-1.6884 27.4536,-7.4844 59.8925,-18.7539 4.3092,-1.497 8.4508,-2.9106 11.6602,-3.9863 3.2094,-1.0757 5.0873,-1.7257 6.248,-2.0039 l 1.9981,-0.4785 a 2.8922255,2.8922255 0 0 1 3.3066,4.0098 l -1.9062,4.1933 c -10.5732,23.2863 -16.4121,40.5245 -17.7149,52.0371 -0.6514,5.7565 -0.1542,10.0094 1.1289,12.8711 1.2832,2.8618 3.2024,4.5329 6.418,5.5684 2.5101,0.8083 4.4386,0.6331 7.0391,-1.0293 2.6004,-1.6625 5.7141,-5.0778 9.207,-10.6836 6.9858,-11.2117 15.4964,-30.9511 26.959,-61.6602 l 5.3516,-14.3398 a 2.8922255,2.8922255 0 0 1 2.125,-1.8203 l 3.6367,-0.75 c 30.2408,-6.2363 80.9448,-10.2696 128.2226,-10.2696 h 23.0606 a 2.8922255,2.8922255 0 0 1 2.8926,2.918 l -0.045,4.9492 c -0.055,6.0477 2.8508,10.389 6.5332,12.4101 3.6825,2.0212 8.0413,1.921 12.0723,-1.7207 1.6596,-1.4994 4.3646,-6.0314 8.0078,-14.873 l 0.8672,-2.1055 a 2.8922255,2.8922255 0 0 1 2.7227,-1.789 l 28.5136,0.4746 c 15.6801,0.2604 40.29,0.6525 54.6875,0.8711 39.1744,0.5945 76.3509,1.5786 111.7071,2.9629 20.8038,0.8145 32.1957,0.9104 37.6601,-0.3165 2.7322,-0.6134 3.7387,-1.3479 4.3828,-2.2695 0.6442,-0.9216 1.0631,-2.5401 1.3047,-5.1914 0.3134,-3.4387 0.033,-5.0013 -2.3262,-6.8262 -2.3589,-1.8248 -7.5786,-3.6706 -16.9335,-5.0156 -18.7099,-2.6899 -53.5982,-3.7809 -115.8868,-4.8418 -33.0151,-0.5623 -55.6484,-0.9677 -70.0644,-1.2617 -7.208,-0.147 -12.3612,-0.2664 -15.7403,-0.3633 -1.6895,-0.048 -2.9323,-0.09 -3.7871,-0.1289 -0.4273,-0.02 -0.7518,-0.037 -1.0214,-0.059 -0.1349,-0.011 -0.2492,-0.021 -0.4083,-0.043 -0.079,-0.011 -0.1644,-0.021 -0.332,-0.06 -0.1676,-0.039 -0.2607,0.3028 -1.3476,-0.7188 -0.6916,-0.6499 -0.9602,-1.5742 -0.9883,-2.1718 -0.028,-0.5976 0.078,-0.9903 0.1816,-1.3203 0.2066,-0.6602 0.4676,-1.1113 0.7735,-1.6114 0.6116,-1.0001 1.4454,-2.0946 2.5039,-3.3808 2.1169,-2.5725 5.1095,-5.824 8.4726,-9.2637 6.7263,-6.8793 14.8078,-14.4091 20.2539,-18.3145 8.2901,-5.9446 15.1811,-9.8325 21.0606,-11.6367 5.8794,-1.8042 11.2496,-1.3981 14.8574,1.9766 5.5798,5.2192 10.7405,7.0845 16.873,6.1738 6.1325,-0.9106 13.4922,-4.9589 22.2911,-12.6328 l 5.5586,-4.8457 a 2.8922255,2.8922255 0 0 1 3.9453,0.1348 l 3.9297,3.9316 c 6.8924,6.8925 14.6869,9.9072 26.7167,9.1777 12.0299,-0.7294 28.165,-5.5178 50.3086,-14.666 7.2101,-2.9786 25.2054,-10.3657 40.0079,-16.4218 31.4036,-12.8481 34.5257,-14.2338 37.4628,-16.3594 5.3877,-3.8989 5.6678,-10.5384 0.6836,-14.7324 -1.5635,-1.3157 -2.7174,-1.9517 -4.7929,-2.1777 -2.0756,-0.226 -5.2034,0.1098 -10.0293,1.4336 -9.6518,2.6476 -25.8808,9.1121 -54.3418,20.9882 -38.0243,15.8666 -50.0378,19.9571 -60.6016,19.9571 -1.9911,0 -3.6124,-0.026 -5.1445,-0.2832 -1.5321,-0.2573 -3.064,-0.8295 -4.2754,-1.8965 -2.4227,-2.1341 -3.1402,-5.0765 -4.4004,-9.6641 -1.1994,-4.3662 -2.7872,-7.4596 -4.4922,-9.3379 -1.705,-1.8782 -3.3963,-2.6547 -5.6328,-2.7129 -4.4731,-0.1163 -11.6967,3.6602 -20.582,12.42 -2.9119,2.8707 -5.8294,5.6971 -8.1914,7.9453 -2.3621,2.2481 -4.0139,3.8012 -4.9786,4.5742 l -2.4023,1.9258 a 2.8922255,2.8922255 0 0 1 -3.6016,0.014 l -3.7304,-2.9473 c -6.1666,-4.8744 -12.4836,-6.7638 -20.5801,-5.8184 -8.0965,0.9455 -17.9908,4.9555 -30.3086,12.3535 -2.1542,1.2938 -3.7621,2.2653 -5.0039,2.9707 -1.2418,0.7055 -1.9348,1.1699 -3.1797,1.4532 -0.6224,0.1416 -1.8518,0.3093 -2.9902,-0.6602 -1.1385,-0.9694 -1.1604,-2.1839 -1.1309,-2.7734 0.059,-1.179 0.331,-1.7272 0.5723,-2.5684 1.9325,-6.7383 0.02,-11.9061 -3.5703,-14.8594 -3.59,-2.9532 -9.0723,-3.8536 -15.3633,-0.6894 -3.5204,1.7706 -5.1958,2.9556 -7.7637,3.0293 -2.5678,0.074 -4.2153,-1.1235 -7.2265,-2.6973 -3.7319,-1.9503 -5.9423,-2.4054 -8.6329,-1.6797 -2.6905,0.7258 -6.214,3.0332 -11.3046,7.5391 -2.0305,1.7972 -3.6021,3.1696 -4.918,4.1992 -1.3159,1.0297 -2.2769,1.785 -3.7715,2.1777 -0.7473,0.1964 -1.7608,0.2376 -2.6836,-0.1523 -0.9228,-0.3899 -1.552,-1.0996 -1.9238,-1.7051 -0.7436,-1.2109 -0.914,-2.2439 -1.1934,-3.4922 -0.7946,-3.5504 -2.2532,-5.9832 -4.207,-7.5839 -1.9538,-1.6007 -4.5102,-2.4794 -7.9727,-2.459 -3.8935,0.023 -5.1692,0.1529 -7.4492,2.1504 -2.2799,1.9974 -5.4312,6.3959 -10.8125,14.6425 -3.2182,4.9319 -7.0717,10.1578 -9.4863,12.4961 l -3.3789,3.2735 a 2.8922255,2.8922255 0 0 1 -4.3184,-0.3321 l -1.2637,-1.6718 v 0 c -0.7383,-0.9755 -1.2691,-2.0539 -2.0996,-3.6836 -0.8311,-1.6307 -1.7834,-3.6142 -2.6778,-5.5976 -3.6666,-8.1323 -7.443,-14.1088 -11.2929,-17.9336 -3.8499,-3.8248 -7.612,-5.5423 -11.9317,-5.6328 -8.6393,-0.1812 -20.5557,7.0985 -36.2539,23.0585 -4.2212,4.2917 -6.163,6.3615 -7.8437,7.586 -0.4202,0.3061 -0.8317,0.6014 -1.5586,0.8183 -0.7269,0.217 -2.0774,0.1556 -2.9453,-0.4785 -0.868,-0.6341 -1.1012,-1.3087 -1.2559,-1.7304 -0.1547,-0.4218 -0.2169,-0.7164 -0.2812,-0.9844 -0.1921,-0.7995 -0.8685,-2.6451 -1.2344,-3.3731 v 0 c -0.24,-0.4769 -0.472,-0.8559 -0.6875,-1.5742 -0.1079,-0.3596 -0.2281,-0.8477 -0.1465,-1.5293 0.082,-0.6817 0.4879,-1.5079 0.9902,-1.9922 1.0047,-0.9687 1.7401,-0.9687 2.3692,-1.084 0.6291,-0.1153 1.2713,-0.1818 2.1015,-0.2754 5.156,-0.5812 7.2923,-3.0691 7.7579,-6.6191 0.4655,-3.5501 -1.2697,-8.5678 -6.1582,-13.0938 -9.802,-9.0748 -21.1588,-9.9828 -31.7207,-4.7265 -10.562,5.2562 -20.1698,17.0569 -24.7774,33.8515 -2.3217,8.4629 -0.8446,15.1774 2.6465,19.25 3.4911,4.0727 9.1254,5.9423 16.7773,3.9492 1.2943,-0.3371 2.2356,-0.6755 3.4453,-0.8222 0.6049,-0.073 1.3854,-0.1518 2.3887,0.3125 1.0033,0.4643 1.7946,1.6425 1.9981,2.498 0.407,1.7111 0.031,2.7208 -0.3418,4.375 -0.3725,1.6542 -0.9426,3.7975 -1.6836,6.7129 -3.9689,15.6142 -5.3386,19.4083 -9.4746,26.3945 l -3.7696,6.3653 a 2.8922255,2.8922255 0 0 1 -1.707,1.3125 l -13.9004,3.8984 c -13.0386,3.657 -25.0159,7.6135 -62.3672,20.6133 -4.3732,1.522 -8.4206,2.9055 -11.4297,3.9121 -1.5045,0.5033 -2.7484,0.9127 -3.6562,1.2012 -0.4539,0.1442 -0.8217,0.2577 -1.1172,0.3437 -0.1478,0.043 -0.2737,0.079 -0.4121,0.1133 -0.1384,0.035 0.023,0.1152 -0.8477,0.1152 -0.8492,0 -1.8973,-0.5672 -2.3515,-1.1464 -0.4542,-0.5793 -0.5453,-1.028 -0.6074,-1.3477 -0.1243,-0.6393 -0.072,-0.9531 -0.037,-1.2891 0.069,-0.6719 0.2118,-1.3064 0.4122,-2.0957 0.4006,-1.5786 1.0492,-3.664 1.8867,-6.1347 1.6748,-4.9414 4.0999,-11.3663 6.6855,-17.5313 l 2.3223,-5.5351 a 2.8922255,2.8922255 0 0 1 2.5547,-1.7715 l 9.6113,-0.3731 c 6.4491,-0.2501 10.7077,-1.1335 13.1406,-2.457 2.4329,-1.3235 3.3928,-2.8074 3.916,-5.9043 0.5754,-3.4056 -0.038,-5.4969 -1.9101,-7.4336 -1.8723,-1.9364 -5.4252,-3.6852 -10.8809,-4.8223 v 0 l -1.9551,-0.4062 a 2.8922255,2.8922255 0 0 1 -2.0488,-4.0215 l 1.8867,-4.1797 c 5.7721,-12.7743 30.278,-59.6954 51.6075,-98.9121 11.3294,-20.8307 17.3668,-34.874 18.5918,-43.6993 0.6124,-4.4126 0.086,-7.3588 -1.2129,-9.541 -1.2989,-2.1821 -3.5324,-3.8739 -7.1817,-5.2676 -3.8798,-1.4817 -11.2532,-0.2877 -20.2148,4.2325 -8.9617,4.5201 -19.4414,12.0827 -29.9512,21.9941 -1.7898,1.688 -3.1362,2.9597 -4.1797,3.8789 -0.5217,0.4596 -0.9638,0.8303 -1.4062,1.1524 -0.4425,0.3221 -0.7245,0.6751 -1.8692,0.8886 -0.5723,0.1068 -1.6554,0.071 -2.5117,-0.6093 -0.8563,-0.6806 -1.0874,-1.5741 -1.1504,-2.086 -0.126,-1.0237 0.065,-1.4014 0.1992,-1.8945 0.2682,-0.9862 0.6858,-2.0641 1.2344,-3.5215 5.0634,-13.4522 5.8409,-24.6843 3.5586,-32.2793 -2.2823,-7.5949 -7.0896,-11.7138 -14.9004,-12.3008 z m 326.9297,1.9239 c -3.7746,0.058 -9.4023,3.0023 -14.5977,10.8632 -7.47,11.3028 -22.2007,19.6623 -38.4785,24.2989 -16.2778,4.6365 -34.1834,5.5109 -48.3789,0.6269 -4.0205,-1.3833 -7.5063,-1.2766 -9.998,-0.2441 -2.4917,1.0325 -4.129,2.8593 -4.8008,5.8379 -1.0155,4.5026 0.2451,7.334 4.9727,10.3457 4.7275,3.0116 13.1221,5.4407 24.9492,6.7929 18.9305,2.1646 39.0006,-1.1548 55.6172,-8.123 16.6165,-6.9683 29.6633,-17.6034 35.0156,-29.4453 3.2273,-7.1403 3.4007,-12.7156 2.2031,-16.125 -1.1976,-3.4094 -3.3583,-4.8765 -6.5039,-4.8281 z m -615.2734,17.4082 c -0.9916,-0.077 -2.0912,-0.073 -3.3184,0.017 -14.7265,1.0866 -45.016,16.6229 -96.957,50.6328 -9.9595,6.5213 -15.7315,12.1449 -17.7403,16.5293 -1.0043,2.1922 -1.1791,3.9971 -0.7187,5.8887 0.4604,1.8917 1.6569,3.9576 3.8203,6.2207 2.808,2.9374 5.9459,4.5333 13.8496,5.332 7.9037,0.7988 20.2407,0.5327 40.0078,-0.5507 7.8587,-0.4307 15.0276,-0.7976 20.2559,-1.041 2.6141,-0.1217 4.7416,-0.2124 6.2383,-0.2657 0.7483,-0.027 1.3361,-0.044 1.7695,-0.051 0.2167,0 0.3894,-0.01 0.5625,0 0.087,0 0.1656,0 0.3105,0.016 0.072,0.01 0.1546,0.012 0.336,0.047 0.091,0.018 0.2035,0.038 0.4082,0.1094 0.1023,0.035 0.2294,0.084 0.4043,0.1757 0.1748,0.092 0.6968,0.5132 0.6972,0.5137 0.5886,0.5886 0.8987,1.6425 0.8438,2.3028 -0.055,0.6603 -0.2563,1.0051 -0.3945,1.2421 -0.2765,0.4742 -0.443,0.5947 -0.5782,0.7227 -0.2704,0.2559 -0.4438,0.3738 -0.6582,0.5254 -0.4287,0.3031 -0.9668,0.645 -1.7207,1.1055 -1.5077,0.921 -3.8399,2.2813 -7.2461,4.2265 -6.8123,3.8905 -17.8961,10.1042 -34.914,19.5918 -15.3997,8.5855 -33.8914,18.8999 -41.0899,22.918 -7.2279,4.0345 -20.8518,11.4813 -30.3242,16.5762 -12.3925,6.6653 -20.4056,11.3775 -25.3515,15.0605 -4.946,3.683 -6.644,6.1032 -7.293,8.5137 -1.4934,5.5459 1.4837,10.4238 7.0527,11.5996 2.3757,0.5016 3.4503,0.5674 6.4102,-0.4961 2.9599,-1.0635 7.5633,-3.4385 15.4238,-7.7676 6.4083,-3.5293 19.9915,-10.9812 30.1934,-16.5664 21.1438,-11.5755 51.9391,-28.7121 78.3652,-43.543 13.213,-7.4154 25.3346,-14.2542 34.6113,-19.5332 9.2768,-5.2789 15.8468,-9.0896 17.4532,-10.1172 5.8783,-3.7602 9.6453,-7.7601 11.3652,-11.4042 1.7199,-3.6442 1.6549,-6.8305 -0.2813,-10.2481 -2.1183,-3.7391 -4.885,-5.7633 -12.4121,-7.0527 -7.527,-1.2895 -19.4774,-1.3894 -38.1367,-0.5957 -10.5997,0.4508 -23.6908,1.0089 -29.0898,1.2402 l -9.8164,0.4219 a 2.8922255,2.8922255 0 0 1 -1.7247,-5.2989 l 3.2735,-2.1718 c 12.3761,-8.2089 26.485,-16.8687 38.1934,-23.6035 5.8542,-3.3675 11.1044,-6.2524 15.2637,-8.3692 2.0796,-1.0584 3.8839,-1.9238 5.3867,-2.5722 1.5028,-0.6485 2.5855,-1.0929 3.8223,-1.2911 6.7749,-1.0855 10.9422,-3.9468 12.4628,-6.7382 1.5207,-2.7915 1.2184,-5.8012 -2.5156,-9.5352 -1.5279,-1.528 -3.5271,-2.4845 -6.5019,-2.7148 z m 329.7929,38.3593 c 0.7114,-0.1434 2.0918,-0.1 3.0645,0.8731 1.2704,1.2704 0.8712,2.0195 0.8418,2.3437 -0.029,0.3243 -0.076,0.4631 -0.1113,0.5899 -0.071,0.2535 -0.1297,0.3985 -0.1954,0.5625 -0.1313,0.328 -0.2897,0.6776 -0.4941,1.1113 -0.4088,0.8675 -0.9927,2.0376 -1.7246,3.4648 -1.4638,2.8546 -3.5119,6.7174 -5.8066,10.9278 -16.33,29.9617 -24.7081,46.0593 -39.5235,75.9394 l -15.039,30.334 a 2.8922255,2.8922255 0 0 1 -2.3028,1.5918 l -3.6367,0.3652 c -2.4381,0.2453 -10.2794,0.5678 -18.2109,0.8008 l -14.3692,0.4219 a 2.8922255,2.8922255 0 0 1 -2.4883,-4.498 l 3.8243,-5.7188 c 2.1042,-3.1468 4.7959,-7.1673 5.9863,-8.9414 1.253,-1.8673 3.6282,-5.1737 5.3965,-7.5176 1.5694,-2.0803 5.0728,-7.3689 7.5195,-11.3965 7.5575,-12.4407 25.7008,-35.5662 42.4941,-55.4648 8.3967,-9.9493 16.4299,-19.0458 22.6114,-25.5176 3.0907,-3.2359 5.7025,-5.8067 7.7597,-7.5644 1.0287,-0.8789 1.8919,-1.5527 2.795,-2.0664 0.4515,-0.2569 0.898,-0.4973 1.6093,-0.6407 z m -187.8222,50.6641 c 0.852,0.011 1.8607,0.1531 2.8398,0.8945 0.9792,0.7414 1.5684,2.1443 1.5684,3.2539 0,1.4377 -0.2826,1.4759 -0.5059,2.0098 -0.2233,0.5339 -0.5069,1.1307 -0.8457,1.8086 -0.6775,1.3557 -1.5758,3.0167 -2.5508,4.7383 -1.9498,3.4432 -4.0667,6.9663 -5.58,8.8808 -1.8432,2.3318 -3.3623,3.8687 -5.5411,4.5313 -1.0894,0.3313 -2.5487,0.2982 -3.6875,-0.4063 -1.1387,-0.7044 -1.7329,-1.8032 -2.0312,-2.7968 -0.5967,-1.9874 -0.3872,-4.0324 0.1797,-6.4786 0.5669,-2.4462 1.5931,-5.2411 3.1269,-8.2773 1.2831,-2.5399 3.5226,-4.311 5.8614,-5.7227 2.3387,-1.4116 4.6137,-2.4678 7.166,-2.4355 z m 255.2226,18.2734 c 0.6161,0 1.2712,0.1207 2.1172,0.4629 0.2121,0.086 0.4587,0.177 0.8594,0.4981 0.4007,0.3211 1.2383,1.1964 1.1113,2.5859 -0.127,1.3895 -1.0381,2.0353 -1.457,2.2832 -0.4189,0.2479 -0.6632,0.306 -0.875,0.3613 -0.8465,0.2212 -1.3185,0.1908 -2.0449,0.1817 -0.7278,-0.01 -0.9373,0.1884 -2.2168,-0.3321 -0.3199,-0.1301 -0.9245,-0.2223 -1.5371,-1.3671 -0.3064,-0.5724 -0.4293,-1.4887 -0.2383,-2.1719 0.191,-0.6832 0.5402,-1.0864 0.7969,-1.334 1.0264,-0.9904 1.2645,-0.7603 1.6074,-0.8496 0.6848,-0.1783 1.2609,-0.3137 1.8769,-0.3184 z m 59.961,13.0938 c 1.3957,0 1.6688,0.5081 1.8925,0.6972 0.2238,0.1892 0.3123,0.3008 0.3907,0.3946 0.1567,0.1875 0.2297,0.3006 0.3086,0.4199 0.1577,0.2386 0.2977,0.4762 0.4668,0.7715 0.3381,0.5905 0.7648,1.38 1.2734,2.3496 1.0173,1.9392 2.3515,4.5823 3.7734,7.4902 3.9343,8.0456 7.6581,13.4292 11.5567,16.7832 3.8985,3.3541 7.9485,4.8513 13.3711,5.1446 4.939,0.2671 8.974,-0.683 13.5468,-3.5235 4.5729,-2.8405 9.6257,-7.6958 15.8301,-15.1621 l 1.6972,-2.0411 a 2.8922255,2.8922255 0 0 1 3.5489,-0.7207 l 4.6621,2.4063 c 8.7197,4.4987 17.6595,3.0386 29.7265,-5.6191 2.6307,-1.8874 3.9976,-2.9487 5.7032,-3.6016 1.7055,-0.6529 3.5613,-0.3227 4.9121,0.082 1.2244,0.3669 3.3485,0.6758 3.3906,0.6758 0.9413,0 1.9721,0.2105 2.8965,0.9219 0.9243,0.7114 1.5469,2.0131 1.5469,3.164 0,0.8339 -0.1066,0.9908 -0.2129,1.4551 -0.1063,0.4644 -0.2501,1.0154 -0.4278,1.668 -0.3553,1.3052 -0.852,3.0055 -1.4511,4.9902 -1.1982,3.9695 -2.8018,9.0592 -4.4532,14.1582 -1.6513,5.0991 -3.3485,10.2036 -4.7304,14.2012 -0.691,1.9988 -1.3017,3.7189 -1.7969,5.041 -0.4952,1.3221 -0.649,1.9428 -1.2637,2.9414 l -1.4238,2.3145 a 2.8922255,2.8922255 0 0 1 -2.459,1.3789 l -29.2441,0.041 c -45.002,0.063 -95.8669,3.235 -118.5059,7.2988 -1.7995,0.323 -3.1287,0.6367 -4.4434,0.7383 -0.6573,0.051 -1.3489,0.1769 -2.4785,-0.3613 -0.5648,-0.2692 -1.2303,-0.8363 -1.582,-1.5469 -0.3517,-0.7106 -0.3873,-1.4136 -0.3359,-1.9297 0.2056,-2.0642 1.026,-2.8148 2.1445,-4.5137 1.1185,-1.6988 2.7,-3.9346 4.8125,-6.9824 7.7309,-11.1535 17.9117,-23.7759 26.7734,-33.6816 4.4309,-4.9529 8.5213,-9.2181 11.8633,-12.3125 1.671,-1.5472 3.1467,-2.801 4.461,-3.7364 1.3142,-0.9353 2.1694,-1.7929 4.2578,-1.7929 z m -443.3047,70.7695 c 1.2026,-0.02 2.8194,-0.013 4.7363,0.016 3.8337,0.057 8.8503,0.1983 13.8457,0.3789 4.9954,0.1807 9.9631,0.4001 13.7031,0.6172 1.8701,0.1086 3.4281,0.2166 4.5664,0.3223 0.5692,0.053 1.0222,0.1018 1.4336,0.168 0.2058,0.033 0.3808,0.058 0.6934,0.1523 0.1563,0.047 0.3357,0.083 0.7305,0.3184 0.1973,0.1177 0.4721,0.2778 0.8125,0.7109 0.3404,0.4331 0.7268,1.3343 0.5898,2.2363 0.048,-0.3161 -0.033,0.3327 -0.09,0.9648 -0.057,0.6322 -0.1324,1.509 -0.2207,2.5606 -0.1768,2.1031 -0.406,4.9099 -0.6446,7.9062 -0.2963,3.7221 -0.4875,6.4815 -0.7285,8.5684 -0.241,2.0869 -0.1881,3.4615 -1.5312,5.1445 -0.6716,0.8415 -2.1393,1.5196 -3.2461,1.4453 -1.1068,-0.074 -1.7954,-0.4672 -2.4336,-0.8457 -1.2765,-0.7569 -2.4497,-1.7538 -4.0801,-3.0039 -2.8821,-2.2098 -11.3947,-8.1975 -18.6328,-13.084 -3.6493,-2.4636 -6.9403,-4.7259 -9.3184,-6.4004 -1.189,-0.8372 -2.1469,-1.5242 -2.8301,-2.0332 -0.3415,-0.2544 -0.6076,-0.4591 -0.8437,-0.6543 -0.1181,-0.097 -0.2185,-0.1774 -0.3926,-0.3535 -0.087,-0.088 -0.1886,-0.168 -0.4023,-0.4941 -0.1069,-0.1631 -0.2689,-0.3702 -0.4024,-0.9395 -0.033,-0.1423 -0.064,-0.3105 -0.074,-0.5117 -0.011,-0.2012 0.049,-0.6965 0.049,-0.6972 3e-4,0 0.8584,-1.5636 0.8594,-1.5645 0.6877,-0.6472 0.9879,-0.6253 1.207,-0.6914 0.2192,-0.066 0.3528,-0.089 0.4766,-0.1094 0.2476,-0.041 0.4375,-0.057 0.6504,-0.072 0.4257,-0.031 0.9163,-0.047 1.5176,-0.057 z" /></g></g></svg>
